<svg width="250" height="180" viewBox="0 0 250 180" fill="none" xmlns="http://www.w3.org/2000/svg">
<path d="M3.69458 0H204.859C229.79 0 250 20.2103 250 45.1411H48.8356C23.9049 45.1411 3.69458 24.9307 3.69458 0Z" fill="black"/>
<path d="M3.69458 111.724C3.69458 86.7934 23.9049 66.5831 48.8357 66.5831H250C250 91.5138 229.79 111.724 204.859 111.724H3.69458Z" fill="black"/>
<path d="M3.69458 134.859H204.859C229.79 134.859 250 155.069 250 180H48.8357C23.905 180 3.69458 159.79 3.69458 134.859Z" fill="black"/>
<path fill-rule="evenodd" clip-rule="evenodd" d="M50 66.5831C22.3858 66.5831 0 88.9688 0 116.583V127.179C0 154.793 22.3858 177.179 50 177.179H54.1872V135.41C47.3315 135.115 41.8719 129.929 41.8719 123.574C41.8719 117.219 47.3315 112.032 54.1872 111.737V66.5831H50Z" fill="black"/>
</svg>
